<mxfile host="app.diagrams.net" modified="2020-11-11T12:48:52.455Z" agent="5.0 (Windows)" etag="W24jOgcEZ4qF0a2owQE8" version="13.9.5" type="github">
  <diagram id="kgpKYQtTHZ0yAKxKKP6v" name="Page-1">
    <mxGraphModel dx="1303" dy="673" grid="1" gridSize="10" guides="1" tooltips="1" connect="1" arrows="1" fold="1" page="1" pageScale="1" pageWidth="850" pageHeight="1100" math="0" shadow="0">
      <root>
        <mxCell id="0" />
        <mxCell id="1" parent="0" />
        <mxCell id="q7ybqoVTV9AN_6o0_KYJ-16" value="&lt;b&gt;interaction &lt;/b&gt;View Product Details" style="shape=umlFrame;whiteSpace=wrap;html=1;width=240;height=20;fontFamily=Lucida Console;fontSize=11;" vertex="1" parent="1">
          <mxGeometry x="110" y="20" width="680" height="380" as="geometry" />
        </mxCell>
        <mxCell id="3nuBFxr9cyL0pnOWT2aG-1" value=":User" style="shape=umlLifeline;perimeter=lifelinePerimeter;container=1;collapsible=0;recursiveResize=0;rounded=0;shadow=0;strokeWidth=1;size=30;fontFamily=Lucida Console;fontSize=11;fillColor=#d5e8d4;strokeColor=#82b366;gradientColor=#ffffff;" parent="1" vertex="1">
          <mxGeometry x="130" y="80" width="100" height="300" as="geometry" />
        </mxCell>
        <mxCell id="3nuBFxr9cyL0pnOWT2aG-2" value="" style="points=[];perimeter=orthogonalPerimeter;rounded=0;shadow=0;strokeWidth=1;fontFamily=Lucida Console;fontSize=11;fillColor=#d5e8d4;strokeColor=#82b366;gradientColor=#ffffff;" parent="3nuBFxr9cyL0pnOWT2aG-1" vertex="1">
          <mxGeometry x="45" y="65" width="10" height="185" as="geometry" />
        </mxCell>
        <mxCell id="3nuBFxr9cyL0pnOWT2aG-5" value="catalog : Catalog" style="shape=umlLifeline;perimeter=lifelinePerimeter;container=1;collapsible=0;recursiveResize=0;rounded=0;shadow=0;strokeWidth=1;size=30;fontFamily=Lucida Console;fontSize=11;fillColor=#d5e8d4;strokeColor=#82b366;gradientColor=#ffffff;" parent="1" vertex="1">
          <mxGeometry x="270" y="80" width="130" height="300" as="geometry" />
        </mxCell>
        <mxCell id="3nuBFxr9cyL0pnOWT2aG-6" value="" style="points=[];perimeter=orthogonalPerimeter;rounded=0;shadow=0;strokeWidth=1;fontFamily=Lucida Console;fontSize=11;fillColor=#d5e8d4;strokeColor=#82b366;gradientColor=#ffffff;" parent="3nuBFxr9cyL0pnOWT2aG-5" vertex="1">
          <mxGeometry x="60" y="65" width="10" height="180" as="geometry" />
        </mxCell>
        <mxCell id="3nuBFxr9cyL0pnOWT2aG-8" value="1: showWineType()" style="verticalAlign=bottom;endArrow=block;entryX=0;entryY=0;shadow=0;strokeWidth=1;fontFamily=Lucida Console;fontSize=11;" parent="1" source="3nuBFxr9cyL0pnOWT2aG-2" target="3nuBFxr9cyL0pnOWT2aG-6" edge="1">
          <mxGeometry relative="1" as="geometry">
            <mxPoint x="275" y="160" as="sourcePoint" />
          </mxGeometry>
        </mxCell>
        <mxCell id="q7ybqoVTV9AN_6o0_KYJ-4" value="2: findInventoryItem()" style="verticalAlign=bottom;endArrow=block;shadow=0;strokeWidth=1;entryX=0;entryY=0.412;entryDx=0;entryDy=0;entryPerimeter=0;fontFamily=Lucida Console;fontSize=11;" edge="1" parent="1">
          <mxGeometry relative="1" as="geometry">
            <mxPoint x="340" y="157" as="sourcePoint" />
            <mxPoint x="507.68" y="156.84000000000003" as="targetPoint" />
          </mxGeometry>
        </mxCell>
        <mxCell id="q7ybqoVTV9AN_6o0_KYJ-5" value="3: return item" style="verticalAlign=bottom;endArrow=open;dashed=1;endSize=8;shadow=0;strokeWidth=1;fontFamily=Lucida Console;fontSize=11;" edge="1" parent="1">
          <mxGeometry relative="1" as="geometry">
            <mxPoint x="341" y="203" as="targetPoint" />
            <mxPoint x="505.5" y="203" as="sourcePoint" />
          </mxGeometry>
        </mxCell>
        <mxCell id="q7ybqoVTV9AN_6o0_KYJ-6" value="inventory : Inventory" style="shape=umlLifeline;perimeter=lifelinePerimeter;container=1;collapsible=0;recursiveResize=0;rounded=0;shadow=0;strokeWidth=1;size=30;fontFamily=Lucida Console;fontSize=11;fillColor=#d5e8d4;strokeColor=#82b366;gradientColor=#ffffff;" vertex="1" parent="1">
          <mxGeometry x="440" y="80" width="150" height="300" as="geometry" />
        </mxCell>
        <mxCell id="q7ybqoVTV9AN_6o0_KYJ-1" value="" style="points=[];perimeter=orthogonalPerimeter;rounded=0;shadow=0;strokeWidth=1;fontFamily=Lucida Console;fontSize=11;fillColor=#d5e8d4;strokeColor=#82b366;gradientColor=#ffffff;" vertex="1" parent="q7ybqoVTV9AN_6o0_KYJ-6">
          <mxGeometry x="70" y="65" width="10" height="60" as="geometry" />
        </mxCell>
        <mxCell id="q7ybqoVTV9AN_6o0_KYJ-8" value="item : InventoryItem" style="shape=umlLifeline;perimeter=lifelinePerimeter;container=1;collapsible=0;recursiveResize=0;rounded=0;shadow=0;strokeWidth=1;size=30;fontFamily=Lucida Console;fontSize=11;fillColor=#d5e8d4;strokeColor=#82b366;gradientColor=#ffffff;" vertex="1" parent="1">
          <mxGeometry x="610" y="80" width="160" height="300" as="geometry" />
        </mxCell>
        <mxCell id="q7ybqoVTV9AN_6o0_KYJ-9" value="" style="points=[];perimeter=orthogonalPerimeter;rounded=0;shadow=0;strokeWidth=1;fontFamily=Lucida Console;fontSize=11;fillColor=#d5e8d4;strokeColor=#82b366;gradientColor=#ffffff;" vertex="1" parent="q7ybqoVTV9AN_6o0_KYJ-8">
          <mxGeometry x="75" y="160" width="10" height="50" as="geometry" />
        </mxCell>
        <mxCell id="q7ybqoVTV9AN_6o0_KYJ-14" value="4: getQuantity(item)" style="verticalAlign=bottom;endArrow=block;shadow=0;strokeWidth=1;fontFamily=Lucida Console;fontSize=11;entryX=0.438;entryY=0.563;entryDx=0;entryDy=0;entryPerimeter=0;exitX=0.562;exitY=0.567;exitDx=0;exitDy=0;exitPerimeter=0;" edge="1" parent="1" source="3nuBFxr9cyL0pnOWT2aG-5" target="q7ybqoVTV9AN_6o0_KYJ-8">
          <mxGeometry relative="1" as="geometry">
            <mxPoint x="360" y="249" as="sourcePoint" />
            <mxPoint x="670" y="249" as="targetPoint" />
          </mxGeometry>
        </mxCell>
        <mxCell id="q7ybqoVTV9AN_6o0_KYJ-19" value="5: return quantity" style="verticalAlign=bottom;endArrow=open;dashed=1;endSize=8;shadow=0;strokeWidth=1;fontFamily=Lucida Console;fontSize=11;entryX=0.518;entryY=0.7;entryDx=0;entryDy=0;entryPerimeter=0;" edge="1" parent="1" source="q7ybqoVTV9AN_6o0_KYJ-8" target="3nuBFxr9cyL0pnOWT2aG-5">
          <mxGeometry relative="1" as="geometry">
            <mxPoint x="365" y="289" as="targetPoint" />
            <mxPoint x="667.0699999999999" y="288.80000000000007" as="sourcePoint" />
          </mxGeometry>
        </mxCell>
        <mxCell id="q7ybqoVTV9AN_6o0_KYJ-20" value="6:" style="verticalAlign=bottom;endArrow=open;dashed=1;endSize=8;shadow=0;strokeWidth=1;fontFamily=Lucida Console;fontSize=11;" edge="1" parent="1">
          <mxGeometry relative="1" as="geometry">
            <mxPoint x="190" y="320" as="targetPoint" />
            <mxPoint x="330" y="320" as="sourcePoint" />
          </mxGeometry>
        </mxCell>
      </root>
    </mxGraphModel>
  </diagram>
</mxfile>
